# xmcd
#
# Track frame offsets:
#	150
#	16874
#	37734
#	55569
#	73983
#	96755
#	111262
#	127783
#	165902
#	182962
#	199537
#	218256
#
# Disc length: 3150 seconds
#
# Revision: 1
# Processed by: cddbd v1.5.2PL0 Copyright (c) Steve Scherf et al.
# Submitted via: audiograbber 1.83.01
#
DISCID=8e0c4c0c
DTITLE=Dennis Schütze - 2174
DYEAR=2004
DGENRE=Country
TTITLE0=Out there
TTITLE1=Ordinary Woman
TTITLE2=Turn to you
TTITLE3=Hello it's me
TTITLE4=Think of me
TTITLE5=Leave this town
TTITLE6=Long ago and far away
TTITLE7=Wichita
TTITLE8=Walk it like I talk it
TTITLE9=Pictures in my mind
TTITLE10=Poor Boy
TTITLE11=Poor Bay (fade out)
EXTD=
EXTT0=
EXTT1=
EXTT2=
EXTT3=
EXTT4=
EXTT5=
EXTT6=
EXTT7=
EXTT8=
EXTT9=
EXTT10=
EXTT11=
PLAYORDER=
